# xmcd CD database file
#
# Track frame offsets:
#	225
#	47001
#	81823
#	104986
#	148497
#	166480
#	196913
#	238370
#	253021
#	272142
#
# Disc length: 4222 seconds
#
# Revision: 0
# Processed by: cddbd v1.5.2PL0 Copyright (c) Steve Scherf et al.
# Submitted via: CDex 1.51
#
DISCID=9e107b0a
DTITLE=Various Artist - Chuck Niles - Jazz for Members
DYEAR=1998
DGENRE=Jazz
TTITLE0=Oh, By the Way - Art Blakey
TTITLE1=Easy Living - Stan Getz
TTITLE2=Just Jazz - Lionel Hampton
TTITLE3=In a Mellow Tone - Bill Harris
TTITLE4=Captain Bill - Gene Harris
TTITLE5=6th Sense - Rob McConnell
TTITLE6=Full House - Wes Montgomery
TTITLE7=Waltz for Claudia - George Shearing
TTITLE8=Sommerset - Zoot Sims
TTITLE9=Blue Bossa - McCoy Tiner
EXTD=YEAR: 1998
EXTT0=
EXTT1=
EXTT2=
EXTT3=
EXTT4=
EXTT5=
EXTT6=
EXTT7=
EXTT8=
EXTT9=
PLAYORDER=
